# xmcd
#
# Track frame offsets:
#	150
#	18560
#	37298
#	51076
#	66324
#	80635
#	98278
#	115847
#	134480
#	151057
#	166606
#	183144
#	201358
#	216763
#	226412
#	243377
#	257815
#	275061
#
# Disc length: 4001 seconds
#
# Revision: 1
# Processed by: cddbd v1.5.2PL0 Copyright (c) Steve Scherf et al.
# Submitted via: dBpowerAMP V4.0
#
DISCID=fb0f9f12
DTITLE=Various Artist - Top Hits USA T930 11/30/07
DYEAR=2007
DGENRE=Top 40
TTITLE0=EG Daily - Breath Of Heaven
TTITLE1=Back Door Slam - Come Home (Acoustic Live Version)
TTITLE2=David Martin - Fall La La In Love
TTITLE3=Baby Bash f Sean Kingston - What Is It
TTITLE4=Finger Eleven - Falling On
TTITLE5=Chris Brown f T Pain and Tok - Kiss Kiss (Reggae Remix)
TTITLE6=Sia - Day Too Soon
TTITLE7=Dream - Falsetto
TTITLE8=Silverchair - The Greatest View
TTITLE9=Rick Ross f R Kelly - Speedin
TTITLE10=Sixx AM - Life Is Beautiful
TTITLE11=Snoop Dogg - Sexual Seduction (Clean Edit)
TTITLE12=N Euro - Lover On The Line (Radio Edit)
TTITLE13=Christmas - Smithereens - Rockin Around The Christmas Tree
TTITLE14=Star De Azlan - She's Pretty
TTITLE15=Road Hammers - I Don't Know When To Quit
TTITLE16=Christmas - Taylor Swift - Christmas Must Be Something More
TTITLE17=Christmas - Gibraan and Tonex - Lonely Christmas
EXTD=
EXTT0=
EXTT1=
EXTT2=
EXTT3=
EXTT4=
EXTT5=
EXTT6=
EXTT7=
EXTT8=
EXTT9=
EXTT10=
EXTT11=
EXTT12=
EXTT13=
EXTT14=
EXTT15=
EXTT16=
EXTT17=
PLAYORDER=
